<?xml version="1.0" encoding="utf-8"?>
<!-- Generator: Adobe Illustrator 28.0.0, SVG Export Plug-In . SVG Version: 6.00 Build 0)  -->
<svg version="1.1" id="Calque_1" xmlns="http://www.w3.org/2000/svg" xmlns:xlink="http://www.w3.org/1999/xlink" x="0px" y="0px"
	 viewBox="0 0 454.7 283.3" style="enable-background:new 0 0 454.7 283.3;" xml:space="preserve">
<style type="text/css">
	.st0{fill:#020203;}
	.st1{fill:none;}
	.st2{fill:#09404F;}
	.st3{fill:#E50051;}
	.st4{fill:#FFFFFF;}
</style>
<g>
	<g>
		<path class="st2" d="M53.5,204.6l0.1-2.8v-5.7l-0.1-2.8h4.3c3.5,0,5.8,2.2,5.8,5.6c0,3.4-2.3,5.7-5.8,5.7H53.5z M56.3,202.3h1.6
			c1.9,0,3-1.4,3-3.4c0-2-1.1-3.4-3-3.4h-1.6V202.3z"/>
		<path class="st2" d="M69,204.7c-2.6,0-4.1-1.6-4.1-4.3c0-2.8,1.5-4.5,4.1-4.5c2.5,0,4,1.6,4,4.3v0.6h-5.6c0,1.3,0.5,2,1.5,2
			c0.8,0,1.3-0.4,1.5-1.2H73C72.8,203.6,71.3,204.7,69,204.7z M67.5,199.4h3.1c0-1.1-0.6-1.7-1.5-1.7
			C68.2,197.7,67.6,198.4,67.5,199.4z"/>
		<path class="st2" d="M77.4,204.7c-1.7,0-2.8-1.2-2.8-3.1V199l-0.1-2.9h2.7l-0.1,2.9l0,2.1c0,1.1,0.4,1.7,1,1.7
			c0.9,0,1.3-0.7,1.3-1.9l0-1.9l-0.1-2.9h2.7l-0.1,2.9v2.8l0.1,2.8h-2.6l0.1-0.9h-0.1C79.1,204.4,78.3,204.7,77.4,204.7z"/>
		<path class="st2" d="M87.3,204.7c-1.9,0-2.7-1-2.7-2.8v-3.8h-1.1v-1.9h1.2l-0.1-1.8h2.6l-0.1,1.8h2.1v1.9h-2.1v3.5
			c0,0.8,0.3,1.1,0.9,1.1c0.5,0,0.9-0.1,1.2-0.2v2C88.7,204.6,88,204.7,87.3,204.7z"/>
		<path class="st2" d="M94.1,204.7c-2.4,0-3.8-1.1-3.8-3h2.4c0,0.8,0.5,1.2,1.5,1.2c0.9,0,1.4-0.3,1.4-0.9c0-1.4-5,0-5-3.5
			c0-1.6,1.4-2.6,3.6-2.6c2.2,0,3.6,1.1,3.6,2.9h-2.4c0-0.7-0.5-1.1-1.2-1.1c-0.7,0-1.2,0.3-1.2,0.9c0,1.5,5,0,5,3.4
			C97.8,203.7,96.4,204.7,94.1,204.7z"/>
		<path class="st2" d="M103.2,204.7c-2.6,0-4.2-1.7-4.2-4.3c0-2.8,1.6-4.5,4.2-4.5c2.2,0,3.7,1.3,4,3.3h-2.6
			c-0.1-0.9-0.6-1.4-1.4-1.4c-1.1,0-1.7,0.9-1.7,2.5c0,1.6,0.6,2.4,1.6,2.4c0.8,0,1.3-0.5,1.5-1.4h2.6
			C107,203.5,105.4,204.7,103.2,204.7z"/>
		<path class="st2" d="M108.6,204.6l0.1-2.7v-5.8l-0.1-2.8h2.6l-0.1,2.8v1h0.1c0.5-0.7,1.3-1.1,2.2-1.1c1.6,0,2.7,1.2,2.7,3.1v2.9
			l0.1,2.7h-2.7l0.1-2.7v-2.5c0-1-0.4-1.5-1.1-1.5c-0.7,0-1.2,0.7-1.2,2v2l0.1,2.7H108.6z"/>
		<path class="st2" d="M121.7,204.7c-2.6,0-4.1-1.6-4.1-4.3c0-2.8,1.5-4.5,4.1-4.5c2.5,0,4,1.6,4,4.3v0.6h-5.6c0,1.3,0.5,2,1.5,2
			c0.8,0,1.3-0.4,1.5-1.2h2.6C125.4,203.6,123.9,204.7,121.7,204.7z M120.2,199.4h3.1c0-1.1-0.6-1.7-1.5-1.7
			C120.8,197.7,120.3,198.4,120.2,199.4z"/>
		<path class="st2" d="M127.3,204.6l0.1-2.8V199l-0.1-2.9h2.6l0,1.5h0.1c0.6-1.2,1.3-1.6,2.2-1.6c0.3,0,0.5,0,0.7,0.1l0,2.4
			c-0.4-0.1-0.6-0.1-1-0.1c-1.2,0-1.8,1-1.8,2.4v1l0.1,2.8H127.3z"/>
		<path class="st2" d="M141.8,204.7c-3.1,0-5.1-1.2-5.1-4h2.8c0,1.2,0.8,1.9,2.3,1.9c1.3,0,1.9-0.5,1.9-1.2c0-0.8-0.9-1-2.5-1.3
			c-2.3-0.4-4.1-1.3-4.1-3.6c0-2.1,1.7-3.4,4.6-3.4c3,0,4.4,1.4,4.5,3.7h-2.8c0-1-0.7-1.5-1.8-1.5s-1.7,0.4-1.7,1.1
			c0,1,1.2,1.1,3.3,1.5c2.1,0.4,3.3,1.3,3.3,3.2C146.5,203.1,144.7,204.7,141.8,204.7z"/>
		<path class="st2" d="M148,207.5l0.1-2.8V199l-0.1-2.9h2.7l-0.1,0.9h0.1c0.6-0.7,1.4-1.1,2.3-1.1c2,0,3.2,1.7,3.2,4.5
			c0,2.7-1.2,4.3-3.2,4.3c-0.9,0-1.8-0.3-2.3-1.1h-0.1v1l0.1,2.8H148z M152.1,202.8c1,0,1.6-0.9,1.6-2.5c0-1.6-0.5-2.4-1.5-2.4
			c-1,0-1.5,0.9-1.5,2.5C150.6,202,151.1,202.8,152.1,202.8z"/>
		<path class="st2" d="M160.2,204.7c-1.6,0-2.8-0.9-2.8-2.4c0-2.3,3-2.8,5.4-3v-0.5c0-0.7-0.4-1.1-1.3-1.1c-0.9,0-1.3,0.5-1.3,1.1
			h-2.6c0-2,1.7-3,3.9-3c2.4,0,3.7,1,3.7,2.8v3.6c0,0.4,0.2,0.5,0.4,0.5c0.1,0,0.3,0,0.4-0.1v1.7c-0.5,0.2-1,0.2-1.5,0.2
			c-0.9,0-1.5-0.5-1.7-1.1v-0.1H163C162.5,204.2,161.5,204.7,160.2,204.7z M160.9,202.9c1.1,0,1.9-0.7,1.9-1.8v-0.4
			c-1.9,0-2.9,0.5-2.9,1.3C159.8,202.5,160.2,202.9,160.9,202.9z"/>
		<path class="st2" d="M167.5,204.6l0.1-2.8V199l-0.1-2.9h2.6l0,1h0.1c0.5-0.7,1.3-1.1,2.2-1.1c1.6,0,2.7,1.2,2.7,3.1v2.8l0.1,2.8
			h-2.7l0.1-2.8v-2.3c0-1-0.5-1.5-1.1-1.5c-0.7,0-1.2,0.5-1.2,1.6v2.3l0.1,2.8H167.5z"/>
		<path class="st2" d="M176.9,204.6l0.1-2.8V199l-0.1-2.9h2.7l-0.1,2.9v2.8l0.1,2.8H176.9z M176.9,195.1v-1.9h2.6v1.9H176.9z"/>
		<path class="st2" d="M184.9,204.7c-2.4,0-3.8-1.1-3.8-3h2.4c0,0.8,0.5,1.2,1.5,1.2c0.9,0,1.4-0.3,1.4-0.9c0-1.4-5,0-5-3.5
			c0-1.6,1.4-2.6,3.6-2.6c2.2,0,3.6,1.1,3.6,2.9H186c0-0.7-0.5-1.1-1.2-1.1c-0.7,0-1.2,0.3-1.2,0.9c0,1.5,5,0,5,3.4
			C188.6,203.7,187.2,204.7,184.9,204.7z"/>
		<path class="st2" d="M193.9,204.7c-2.6,0-4.2-1.7-4.2-4.3c0-2.8,1.6-4.5,4.2-4.5c2.2,0,3.7,1.3,4,3.3h-2.6
			c-0.1-0.9-0.6-1.4-1.4-1.4c-1.1,0-1.7,0.9-1.7,2.5c0,1.6,0.6,2.4,1.6,2.4c0.8,0,1.3-0.5,1.5-1.4h2.6
			C197.7,203.5,196.2,204.7,193.9,204.7z"/>
		<path class="st2" d="M199.3,204.6l0.1-2.7v-5.8l-0.1-2.8h2.6l-0.1,2.8v1h0.1c0.5-0.7,1.3-1.1,2.2-1.1c1.6,0,2.7,1.2,2.7,3.1v2.9
			l0.1,2.7h-2.7l0.1-2.7v-2.5c0-1-0.4-1.5-1.1-1.5c-0.7,0-1.2,0.7-1.2,2v2l0.1,2.7H199.3z"/>
		<path class="st2" d="M211.3,204.7c-1.6,0-2.7-1-2.7-2.5v-6.1l-0.1-2.8h2.7l-0.1,2.8v6.1c0,0.5,0.2,0.7,0.7,0.7
			c0.3,0,0.5,0,0.8-0.1v1.8C212.2,204.6,211.7,204.7,211.3,204.7z"/>
		<path class="st2" d="M217.5,204.7c-2.6,0-4.1-1.6-4.1-4.3c0-2.8,1.5-4.5,4.1-4.5c2.5,0,4,1.6,4,4.3v0.6H216c0,1.3,0.5,2,1.5,2
			c0.8,0,1.3-0.4,1.5-1.2h2.6C221.3,203.6,219.8,204.7,217.5,204.7z M216,199.4h3.1c0-1.1-0.6-1.7-1.5-1.7
			C216.7,197.7,216.1,198.4,216,199.4z"/>
		<path class="st2" d="M223.1,204.6l0.1-2.7v-5.8l-0.1-2.8h2.6l-0.1,2.8v1h0.1c0.5-0.7,1.3-1.1,2.2-1.1c1.6,0,2.7,1.2,2.7,3.1v2.9
			l0.1,2.7H228l0.1-2.7v-2.5c0-1-0.4-1.5-1.1-1.5c-0.7,0-1.2,0.7-1.2,2v2l0.1,2.7H223.1z"/>
		<path class="st2" d="M232.5,204.6l0.1-2.8V199l-0.1-2.9h2.6l0,1.5h0.1c0.6-1.2,1.3-1.6,2.2-1.6c0.3,0,0.5,0,0.7,0.1l0,2.4
			c-0.4-0.1-0.6-0.1-1-0.1c-1.2,0-1.8,1-1.8,2.4v1l0.1,2.8H232.5z"/>
		<path class="st2" d="M239.3,204.6l0.1-2.8v-5.7l-0.1-2.8h2.7l-0.1,2.8v3.1h0.1l0.7-0.8l1.7-2.2h3.2l-2,2.2l-1,1.2l1.5,2.2l2,2.8
			h-3.3l-1.6-2.6l-0.5-0.8h-0.1l-0.7,0.8v0.1l0.1,2.4H239.3z"/>
		<path class="st2" d="M248.8,204.6l0.1-2.8V199l-0.1-2.9h2.6l0,1.5h0.1c0.6-1.2,1.3-1.6,2.2-1.6c0.3,0,0.5,0,0.7,0.1l0,2.4
			c-0.4-0.1-0.6-0.1-1-0.1c-1.2,0-1.8,1-1.8,2.4v1l0.1,2.8H248.8z"/>
		<path class="st2" d="M257.8,204.7c-1.6,0-2.8-0.9-2.8-2.4c0-2.3,3-2.8,5.4-3v-0.5c0-0.7-0.4-1.1-1.3-1.1c-0.9,0-1.3,0.5-1.3,1.1
			h-2.6c0-2,1.7-3,3.9-3c2.4,0,3.8,1,3.8,2.8v3.6c0,0.4,0.2,0.5,0.4,0.5c0.1,0,0.3,0,0.4-0.1v1.7c-0.5,0.2-1,0.2-1.5,0.2
			c-0.9,0-1.5-0.5-1.7-1.1v-0.1h-0.1C260.2,204.2,259.2,204.7,257.8,204.7z M256.3,193.3h2.3v1.7h-2.3V193.3z M258.5,202.9
			c1.1,0,1.9-0.7,1.9-1.8v-0.4c-1.9,0-2.9,0.5-2.9,1.3C257.5,202.5,257.8,202.9,258.5,202.9z M259.9,193.2h2.3v1.7h-2.3V193.2z"/>
		<path class="st2" d="M265.7,204.6l0.1-2.8v-3.7h-1.3v-1.9h1.3v-0.6c0-1.5,1.1-2.5,2.9-2.5c0.5,0,1.1,0.1,1.6,0.2v1.8
			c-0.3,0-0.7-0.1-1-0.1c-0.6,0-0.9,0.3-0.9,0.7v0.5h1.9v1.9h-1.9v3.7l0.1,2.8H265.7z"/>
		<path class="st2" d="M274.7,204.7c-1.9,0-2.7-1-2.7-2.8v-3.8H271v-1.9h1.2l-0.1-1.8h2.6l-0.1,1.8h2.1v1.9h-2.1v3.5
			c0,0.8,0.3,1.1,0.9,1.1c0.5,0,0.9-0.1,1.2-0.2v2C276.2,204.6,275.4,204.7,274.7,204.7z"/>
		<path class="st2" d="M281.8,204.7c-2.6,0-4.1-1.6-4.1-4.3c0-2.8,1.5-4.5,4.1-4.5c2.5,0,4,1.6,4,4.3v0.6h-5.6c0,1.3,0.5,2,1.5,2
			c0.8,0,1.3-0.4,1.5-1.2h2.6C285.6,203.6,284.1,204.7,281.8,204.7z M280.3,199.4h3.1c0-1.1-0.6-1.7-1.5-1.7
			C281,197.7,280.4,198.4,280.3,199.4z"/>
		<path class="st2" d="M289.4,204.6l-1.9-5.6l-1.1-2.9h2.8l0.8,2.8l0.7,2.5h0.1l0.7-2.5l0.8-2.9h2.8l-1.1,2.9l-1.9,5.6H289.4z"/>
		<path class="st2" d="M299.5,204.7c-2.6,0-4.1-1.6-4.1-4.3c0-2.8,1.5-4.5,4.1-4.5c2.5,0,4,1.6,4,4.3v0.6H298c0,1.3,0.5,2,1.5,2
			c0.8,0,1.3-0.4,1.5-1.2h2.6C303.3,203.6,301.8,204.7,299.5,204.7z M298,199.4h3.1c0-1.1-0.6-1.7-1.5-1.7
			C298.7,197.7,298.1,198.4,298,199.4z"/>
		<path class="st2" d="M305.2,204.6l0.1-2.8V199l-0.1-2.9h2.6l0,1.5h0.1c0.6-1.2,1.3-1.6,2.2-1.6c0.3,0,0.5,0,0.7,0.1l0,2.4
			c-0.4-0.1-0.6-0.1-1-0.1c-1.2,0-1.8,1-1.8,2.4v1l0.1,2.8H305.2z"/>
		<path class="st2" d="M316.9,204.7c-1,0-1.8-0.4-2.3-1.1h-0.1l0.1,0.9h-2.7l0.1-2.8v-5.7l-0.1-2.8h2.7l-0.1,2.8v1h0.1
			c0.6-0.7,1.4-1.1,2.3-1.1c2,0,3.2,1.7,3.2,4.5C320.1,203.1,318.9,204.7,316.9,204.7z M316,202.8c1,0,1.6-0.9,1.6-2.5
			c0-1.6-0.5-2.4-1.5-2.4c-1,0-1.5,0.9-1.5,2.5C314.5,202,315,202.8,316,202.8z"/>
		<path class="st2" d="M324.1,204.7c-1.6,0-2.8-0.9-2.8-2.4c0-2.3,3-2.8,5.4-3v-0.5c0-0.7-0.4-1.1-1.3-1.1c-0.9,0-1.3,0.5-1.3,1.1
			h-2.6c0-2,1.7-3,3.9-3c2.4,0,3.8,1,3.8,2.8v3.6c0,0.4,0.2,0.5,0.4,0.5c0.1,0,0.3,0,0.4-0.1v1.7c-0.5,0.2-1,0.2-1.5,0.2
			c-0.9,0-1.5-0.5-1.7-1.1v-0.1h-0.1C326.4,204.2,325.4,204.7,324.1,204.7z M324.8,202.9c1.1,0,1.9-0.7,1.9-1.8v-0.4
			c-1.9,0-2.9,0.5-2.9,1.3C323.8,202.5,324.1,202.9,324.8,202.9z"/>
		<path class="st2" d="M331.4,204.6l0.1-2.8V199l-0.1-2.9h2.6l0,1h0.1c0.5-0.7,1.3-1.1,2.2-1.1c1.6,0,2.7,1.2,2.7,3.1v2.8l0.1,2.8
			h-2.7l0.1-2.8v-2.3c0-1-0.5-1.5-1.1-1.5c-0.7,0-1.2,0.5-1.2,1.6v2.3l0.1,2.8H331.4z"/>
		<path class="st2" d="M343.9,204.7c-2.1,0-3.5-1.7-3.5-4.3c0-2.8,1.3-4.5,3.4-4.5c0.8,0,1.7,0.4,2.1,1h0v-0.9l-0.1-2.8h2.7
			l-0.1,2.8v5.7l0.1,2.8h-2.7l0.1-0.8h0C345.5,204.3,344.7,204.7,343.9,204.7z M344.5,202.8c1,0,1.5-0.8,1.5-2.4
			c0-1.6-0.5-2.5-1.5-2.5c-1,0-1.5,0.8-1.5,2.4C343,201.9,343.5,202.8,344.5,202.8z"/>
		<path class="st2" d="M52.5,224.2l1.1-2.8l3-8.5H60l3,8.5l1.1,2.8h-3l-0.7-2.2l0-0.1h-4l0,0.1l-0.7,2.2H52.5z M56.9,219.7h2.7
			l-1.3-4.5h-0.1L56.9,219.7z"/>
		<path class="st2" d="M68.4,224.4c-2.4,0-3.8-1.1-3.8-3H67c0,0.8,0.5,1.2,1.5,1.2c0.9,0,1.4-0.3,1.4-0.9c0-1.4-5,0-5-3.5
			c0-1.6,1.4-2.6,3.6-2.6c2.2,0,3.6,1.1,3.6,2.9h-2.4c0-0.7-0.5-1.1-1.2-1.1c-0.7,0-1.2,0.3-1.2,0.9c0,1.5,5,0,5,3.4
			C72.2,223.3,70.8,224.4,68.4,224.4z"/>
		<path class="st2" d="M77.5,224.4c-2.6,0-4.2-1.7-4.2-4.4c0-2.7,1.6-4.4,4.2-4.4c2.6,0,4.2,1.7,4.2,4.4
			C81.7,222.7,80.1,224.4,77.5,224.4z M77.5,222.5c1.1,0,1.6-0.9,1.6-2.5c0-1.6-0.6-2.5-1.6-2.5c-1,0-1.6,0.9-1.6,2.5
			C75.9,221.6,76.4,222.5,77.5,222.5z"/>
		<path class="st2" d="M87,224.4c-2.6,0-4.2-1.7-4.2-4.3c0-2.8,1.6-4.5,4.2-4.5c2.2,0,3.7,1.3,4,3.3h-2.6c-0.1-0.9-0.6-1.4-1.4-1.4
			c-1.1,0-1.7,0.9-1.7,2.5c0,1.6,0.6,2.4,1.6,2.4c0.8,0,1.3-0.5,1.5-1.4h2.6C90.9,223.1,89.3,224.4,87,224.4z"/>
		<path class="st2" d="M92.5,224.2l0.1-2.8v-2.8l-0.1-2.9h2.7l-0.1,2.9v2.8l0.1,2.8H92.5z M92.5,214.8v-1.9h2.6v1.9H92.5z"/>
		<path class="st2" d="M99.5,224.4c-1.6,0-2.8-0.9-2.8-2.4c0-2.3,3-2.8,5.4-3v-0.5c0-0.7-0.4-1.1-1.3-1.1c-0.9,0-1.3,0.5-1.3,1.1H97
			c0-2,1.7-3,3.9-3c2.4,0,3.7,1,3.7,2.8v3.6c0,0.4,0.2,0.5,0.4,0.5c0.1,0,0.3,0,0.4-0.1v1.7c-0.5,0.2-1,0.2-1.5,0.2
			c-0.9,0-1.5-0.5-1.7-1.1v-0.1h-0.1C101.9,223.8,100.9,224.4,99.5,224.4z M100.2,222.5c1.1,0,1.9-0.7,1.9-1.8v-0.4
			c-1.9,0-2.9,0.5-2.9,1.3C99.2,222.2,99.5,222.5,100.2,222.5z"/>
		<path class="st2" d="M110.6,224.4c-2.6,0-4.2-1.7-4.2-4.3c0-2.8,1.6-4.5,4.2-4.5c2.2,0,3.7,1.3,4,3.3H112
			c-0.1-0.9-0.6-1.4-1.4-1.4c-1.1,0-1.7,0.9-1.7,2.5c0,1.6,0.6,2.4,1.6,2.4c0.8,0,1.3-0.5,1.5-1.4h2.6
			C114.5,223.1,112.9,224.4,110.6,224.4z"/>
		<path class="st2" d="M116.1,224.2l0.1-2.8v-2.8l-0.1-2.9h2.7l-0.1,2.9v2.8l0.1,2.8H116.1z M116.1,214.8v-1.9h2.6v1.9H116.1z"/>
		<path class="st2" d="M124.5,224.4c-2.6,0-4.2-1.7-4.2-4.4c0-2.7,1.6-4.4,4.2-4.4c2.6,0,4.2,1.7,4.2,4.4
			C128.7,222.7,127.1,224.4,124.5,224.4z M124.5,222.5c1.1,0,1.6-0.9,1.6-2.5c0-1.6-0.6-2.5-1.6-2.5c-1,0-1.6,0.9-1.6,2.5
			C122.9,221.6,123.5,222.5,124.5,222.5z M125.4,214.7h-2l1.4-1.8h3L125.4,214.7z"/>
		<path class="st2" d="M130.3,224.2l0.1-2.8v-2.7l-0.1-2.9h2.6l0,1h0.1c0.5-0.7,1.3-1.1,2.2-1.1c1.6,0,2.7,1.2,2.7,3.1v2.8l0.1,2.8
			h-2.7l0.1-2.8v-2.3c0-1-0.5-1.5-1.1-1.5c-0.7,0-1.2,0.5-1.2,1.6v2.3l0.1,2.8H130.3z"/>
		<path class="st2" d="M141.8,224.2l1.1-2.8l3-8.5h3.3l3,8.5l1.1,2.8h-3l-0.7-2.2l0-0.1h-4l0,0.1l-0.7,2.2H141.8z M146.1,219.7h2.7
			l-1.3-4.5h-0.1L146.1,219.7z"/>
		<path class="st2" d="M156.9,224.4c-1.6,0-2.7-1-2.7-2.5v-6.1l-0.1-2.8h2.7l-0.1,2.8v6.1c0,0.5,0.2,0.7,0.7,0.7
			c0.3,0,0.5,0,0.8-0.1v1.8C157.8,224.3,157.3,224.4,156.9,224.4z"/>
		<path class="st2" d="M163.1,224.4c-2.6,0-4.1-1.6-4.1-4.3c0-2.8,1.5-4.5,4.1-4.5c2.5,0,4,1.6,4,4.3v0.6h-5.6c0,1.3,0.5,2,1.5,2
			c0.8,0,1.3-0.4,1.5-1.2h2.6C166.9,223.2,165.4,224.4,163.1,224.4z M161.6,219.1h3.1c0-1.1-0.6-1.7-1.5-1.7
			C162.3,217.4,161.7,218,161.6,219.1z"/>
		<path class="st2" d="M168.7,224.2l0.1-2.8v-2.7l-0.1-2.9h2.6l0,1h0.1c0.5-0.7,1.2-1.1,2.1-1.1c1,0,1.8,0.5,2.3,1.2h0.1
			c0.5-0.7,1.4-1.2,2.4-1.2c1.6,0,2.6,1.2,2.6,3.1v2.8l0.1,2.8h-2.7l0.1-2.8v-2.3c0-1-0.4-1.5-1-1.5c-0.7,0-1.2,0.5-1.2,1.5v2.4
			l0.1,2.8h-2.7l0.1-2.8v-2.3c0-1-0.4-1.5-1.1-1.5c-0.7,0-1.1,0.5-1.1,1.5v2.3l0.1,2.8H168.7z"/>
		<path class="st2" d="M185.1,224.4c-1.6,0-2.8-0.9-2.8-2.4c0-2.3,3-2.8,5.4-3v-0.5c0-0.7-0.4-1.1-1.3-1.1c-0.9,0-1.3,0.5-1.3,1.1
			h-2.6c0-2,1.7-3,3.9-3c2.4,0,3.8,1,3.8,2.8v3.6c0,0.4,0.2,0.5,0.4,0.5c0.1,0,0.3,0,0.4-0.1v1.7c-0.5,0.2-1,0.2-1.5,0.2
			c-0.9,0-1.5-0.5-1.7-1.1v-0.1h-0.1C187.5,223.8,186.5,224.4,185.1,224.4z M185.8,222.5c1.1,0,1.9-0.7,1.9-1.8v-0.4
			c-1.9,0-2.9,0.5-2.9,1.3C184.8,222.2,185.1,222.5,185.8,222.5z"/>
		<path class="st2" d="M192.4,224.2l0.1-2.8v-2.7l-0.1-2.9h2.6l0,1h0.1c0.5-0.7,1.3-1.1,2.2-1.1c1.6,0,2.7,1.2,2.7,3.1v2.8l0.1,2.8
			h-2.7l0.1-2.8v-2.3c0-1-0.5-1.5-1.1-1.5c-0.7,0-1.2,0.5-1.2,1.6v2.3l0.1,2.8H192.4z"/>
		<path class="st2" d="M204.2,224.4c-1.6,0-2.8-0.9-2.8-2.4c0-2.3,3-2.8,5.4-3v-0.5c0-0.7-0.4-1.1-1.3-1.1c-0.9,0-1.3,0.5-1.3,1.1
			h-2.6c0-2,1.7-3,3.9-3c2.4,0,3.7,1,3.7,2.8v3.6c0,0.4,0.2,0.5,0.4,0.5c0.1,0,0.3,0,0.4-0.1v1.7c-0.5,0.2-1,0.2-1.5,0.2
			c-0.9,0-1.5-0.5-1.7-1.1v-0.1H207C206.5,223.8,205.5,224.4,204.2,224.4z M204.9,222.5c1.1,0,1.9-0.7,1.9-1.8v-0.4
			c-1.9,0-2.9,0.5-2.9,1.3C203.8,222.2,204.2,222.5,204.9,222.5z"/>
		<path class="st2" d="M218,224.4c-2.1,0-3.5-1.7-3.5-4.3c0-2.8,1.3-4.5,3.4-4.5c0.8,0,1.7,0.4,2.1,1h0v-0.9l-0.1-2.8h2.7l-0.1,2.8
			v5.7l0.1,2.8H220l0.1-0.8h0C219.6,224,218.8,224.4,218,224.4z M218.6,222.5c1,0,1.5-0.8,1.5-2.4c0-1.6-0.5-2.5-1.5-2.5
			c-1,0-1.5,0.8-1.5,2.4C217.1,221.6,217.6,222.5,218.6,222.5z"/>
		<path class="st2" d="M228.4,224.4c-2.6,0-4.1-1.6-4.1-4.3c0-2.8,1.5-4.5,4.1-4.5c2.5,0,4,1.6,4,4.3v0.6h-5.6c0,1.3,0.5,2,1.5,2
			c0.8,0,1.3-0.4,1.5-1.2h2.6C232.1,223.2,230.6,224.4,228.4,224.4z M226.8,219.1h3.1c0-1.1-0.6-1.7-1.5-1.7
			C227.5,217.4,227,218,226.8,219.1z"/>
		<path class="st2" d="M236.6,224.4c-1.6,0-2.7-1-2.7-2.5v-6.1l-0.1-2.8h2.7l-0.1,2.8v6.1c0,0.5,0.2,0.7,0.7,0.7
			c0.3,0,0.5,0,0.8-0.1v1.8C237.5,224.3,237,224.4,236.6,224.4z"/>
		<path class="st2" d="M242.7,224.2l0.1-2.8v-5.7l-0.1-2.8h4.5c2.6,0,4.3,1.5,4.3,3.8c0,2.5-1.8,3.8-4.4,3.8h-1.6v0.9l0.1,2.8H242.7
			z M245.4,218.4h1.5c1.1,0,1.8-0.5,1.8-1.7c0-1.1-0.6-1.7-1.7-1.7h-1.6V218.4z"/>
		<path class="st2" d="M252.9,224.2l0.1-2.8v-2.7l-0.1-2.9h2.6l0,1.5h0.1c0.6-1.2,1.3-1.6,2.2-1.6c0.3,0,0.5,0,0.7,0.1l0,2.4
			c-0.4-0.1-0.6-0.1-1-0.1c-1.2,0-1.8,1-1.8,2.4v1l0.1,2.8H252.9z"/>
		<path class="st2" d="M263.3,224.4c-2.6,0-4.2-1.7-4.2-4.4c0-2.7,1.6-4.4,4.2-4.4c2.6,0,4.2,1.7,4.2,4.4
			C267.5,222.7,265.9,224.4,263.3,224.4z M263.3,222.5c1.1,0,1.6-0.9,1.6-2.5c0-1.6-0.6-2.5-1.6-2.5c-1,0-1.6,0.9-1.6,2.5
			C261.7,221.6,262.3,222.5,263.3,222.5z"/>
		<path class="st2" d="M269.6,224.2l0.1-2.8v-3.7h-1.3v-1.9h1.3v-0.6c0-1.5,1.1-2.5,2.9-2.5c0.5,0,1.1,0.1,1.6,0.2v1.8
			c-0.3,0-0.7-0.1-1-0.1c-0.6,0-0.9,0.3-0.9,0.7v0.5h1.9v1.9h-1.9v3.7l0.1,2.8H269.6z"/>
		<path class="st2" d="M278.9,224.4c-2.6,0-4.1-1.6-4.1-4.3c0-2.8,1.5-4.5,4.1-4.5c2.5,0,4,1.6,4,4.3v0.6h-5.6c0,1.3,0.5,2,1.5,2
			c0.8,0,1.3-0.4,1.5-1.2h2.6C282.7,223.2,281.2,224.4,278.9,224.4z M277.4,219.1h3.1c0-1.1-0.6-1.7-1.5-1.7
			C278.1,217.4,277.5,218,277.4,219.1z"/>
		<path class="st2" d="M287.9,224.4c-2.4,0-3.8-1.1-3.8-3h2.4c0,0.8,0.5,1.2,1.5,1.2c0.9,0,1.4-0.3,1.4-0.9c0-1.4-5,0-5-3.5
			c0-1.6,1.4-2.6,3.6-2.6c2.2,0,3.6,1.1,3.6,2.9h-2.4c0-0.7-0.5-1.1-1.2-1.1c-0.7,0-1.2,0.3-1.2,0.9c0,1.5,5,0,5,3.4
			C291.7,223.3,290.3,224.4,287.9,224.4z"/>
		<path class="st2" d="M297,224.4c-2.6,0-4.2-1.7-4.2-4.4c0-2.7,1.6-4.4,4.2-4.4c2.6,0,4.2,1.7,4.2,4.4
			C301.2,222.7,299.6,224.4,297,224.4z M297,222.5c1.1,0,1.6-0.9,1.6-2.5c0-1.6-0.6-2.5-1.6-2.5c-1,0-1.6,0.9-1.6,2.5
			C295.4,221.6,295.9,222.5,297,222.5z"/>
		<path class="st2" d="M302.7,224.2l0.1-2.8v-2.7l-0.1-2.9h2.6l0,1.5h0.1c0.6-1.2,1.3-1.6,2.2-1.6c0.3,0,0.5,0,0.7,0.1l0,2.4
			c-0.4-0.1-0.6-0.1-1-0.1c-1.2,0-1.8,1-1.8,2.4v1l0.1,2.8H302.7z"/>
		<path class="st2" d="M311.7,224.4c-1.6,0-2.8-0.9-2.8-2.4c0-2.3,3-2.8,5.4-3v-0.5c0-0.7-0.4-1.1-1.3-1.1c-0.9,0-1.3,0.5-1.3,1.1
			h-2.6c0-2,1.7-3,3.9-3c2.4,0,3.8,1,3.8,2.8v3.6c0,0.4,0.2,0.5,0.4,0.5c0.1,0,0.3,0,0.4-0.1v1.7c-0.5,0.2-1,0.2-1.5,0.2
			c-0.9,0-1.5-0.5-1.7-1.1v-0.1h-0.1C314.1,223.8,313.1,224.4,311.7,224.4z M312.4,222.5c1.1,0,1.9-0.7,1.9-1.8v-0.4
			c-1.9,0-2.9,0.5-2.9,1.3C311.4,222.2,311.7,222.5,312.4,222.5z"/>
		<path class="st2" d="M322.2,224.4c-2.1,0-3.5-1.7-3.5-4.3c0-2.8,1.3-4.5,3.4-4.5c0.8,0,1.7,0.4,2.1,1h0v-0.9l-0.1-2.8h2.7
			l-0.1,2.8v5.7l0.1,2.8h-2.7l0.1-0.8h0C323.7,224,322.9,224.4,322.2,224.4z M322.8,222.5c1,0,1.5-0.8,1.5-2.4
			c0-1.6-0.5-2.5-1.5-2.5c-1,0-1.5,0.8-1.5,2.4C321.3,221.6,321.8,222.5,322.8,222.5z"/>
		<path class="st2" d="M332.6,224.4c-2.6,0-4.2-1.7-4.2-4.4c0-2.7,1.6-4.4,4.2-4.4c2.6,0,4.2,1.7,4.2,4.4
			C336.8,222.7,335.2,224.4,332.6,224.4z M332.6,222.5c1.1,0,1.6-0.9,1.6-2.5c0-1.6-0.6-2.5-1.6-2.5c-1,0-1.6,0.9-1.6,2.5
			C331,221.6,331.5,222.5,332.6,222.5z"/>
		<path class="st2" d="M344.8,224.4c-2.1,0-3.5-1.7-3.5-4.3c0-2.8,1.3-4.5,3.4-4.5c0.8,0,1.7,0.4,2.1,1h0v-0.9l-0.1-2.8h2.7
			l-0.1,2.8v5.7l0.1,2.8h-2.7l0.1-0.8h0C346.4,224,345.6,224.4,344.8,224.4z M345.5,222.5c1,0,1.5-0.8,1.5-2.4
			c0-1.6-0.5-2.5-1.5-2.5c-1,0-1.5,0.8-1.5,2.4C343.9,221.6,344.5,222.5,345.5,222.5z"/>
		<path class="st2" d="M355.2,224.4c-2.6,0-4.1-1.6-4.1-4.3c0-2.8,1.5-4.5,4.1-4.5c2.5,0,4,1.6,4,4.3v0.6h-5.6c0,1.3,0.5,2,1.5,2
			c0.8,0,1.3-0.4,1.5-1.2h2.6C359,223.2,357.5,224.4,355.2,224.4z M353.7,219.1h3.1c0-1.1-0.6-1.7-1.5-1.7
			C354.4,217.4,353.8,218,353.7,219.1z"/>
		<path class="st2" d="M364.4,224.2l0.1-2.8v-5.7l-0.1-2.8h7.6v2.2h-4.9v2.1h4.6v2.2h-4.6v2.5h5v2.2H364.4z"/>
		<path class="st2" d="M377.2,224.4c-2.4,0-3.8-1.1-3.8-3h2.4c0,0.8,0.5,1.2,1.5,1.2c0.9,0,1.4-0.3,1.4-0.9c0-1.4-5,0-5-3.5
			c0-1.6,1.4-2.6,3.6-2.6c2.2,0,3.6,1.1,3.6,2.9h-2.4c0-0.7-0.5-1.1-1.2-1.1c-0.7,0-1.2,0.3-1.2,0.9c0,1.5,5,0,5,3.4
			C381,223.3,379.6,224.4,377.2,224.4z"/>
		<path class="st2" d="M382.5,227.1l0.1-2.8v-5.7l-0.1-2.9h2.7l-0.1,0.9h0.1c0.6-0.7,1.4-1.1,2.3-1.1c2,0,3.2,1.7,3.2,4.5
			c0,2.7-1.2,4.3-3.2,4.3c-0.9,0-1.8-0.3-2.3-1.1h-0.1v1l0.1,2.8H382.5z M386.5,222.5c1,0,1.6-0.9,1.6-2.5c0-1.6-0.5-2.4-1.5-2.4
			c-1,0-1.5,0.9-1.5,2.5C385,221.6,385.6,222.5,386.5,222.5z"/>
		<path class="st2" d="M394.6,224.4c-1.6,0-2.8-0.9-2.8-2.4c0-2.3,3-2.8,5.4-3v-0.5c0-0.7-0.4-1.1-1.3-1.1c-0.9,0-1.3,0.5-1.3,1.1
			h-2.6c0-2,1.7-3,3.9-3c2.4,0,3.7,1,3.7,2.8v3.6c0,0.4,0.2,0.5,0.4,0.5c0.1,0,0.3,0,0.4-0.1v1.7c-0.5,0.2-1,0.2-1.5,0.2
			c-0.9,0-1.5-0.5-1.7-1.1v-0.1h-0.1C397,223.8,396,224.4,394.6,224.4z M395.3,222.5c1.1,0,1.9-0.7,1.9-1.8v-0.4
			c-1.9,0-2.9,0.5-2.9,1.3C394.3,222.2,394.7,222.5,395.3,222.5z"/>
		<path class="st2" d="M402,224.2l0.1-2.8v-2.7l-0.1-2.9h2.6l0,1h0.1c0.5-0.7,1.3-1.1,2.2-1.1c1.6,0,2.7,1.2,2.7,3.1v2.8l0.1,2.8
			h-2.7l0.1-2.8v-2.3c0-1-0.5-1.5-1.1-1.5c-0.7,0-1.2,0.5-1.2,1.6v2.3l0.1,2.8H402z M403.1,214.8c0-1.5,0.5-2.2,1.6-2.2
			c1,0,1.3,0.8,1.9,0.8c0.5,0,0.7-0.3,0.7-0.9h1c0,1.5-0.5,2.2-1.6,2.2s-1.2-0.8-1.9-0.8c-0.5,0-0.7,0.3-0.7,0.9H403.1z"/>
		<path class="st2" d="M415.1,224.4c-2.6,0-4.2-1.7-4.2-4.4c0-2.7,1.6-4.4,4.2-4.4c2.6,0,4.2,1.7,4.2,4.4
			C419.3,222.7,417.7,224.4,415.1,224.4z M415.1,222.5c1.1,0,1.6-0.9,1.6-2.5c0-1.6-0.6-2.5-1.6-2.5c-1,0-1.6,0.9-1.6,2.5
			C413.5,221.6,414.1,222.5,415.1,222.5z"/>
		<path class="st2" d="M423.5,224.4c-1.6,0-2.7-1-2.7-2.5v-6.1l-0.1-2.8h2.7l-0.1,2.8v6.1c0,0.5,0.2,0.7,0.7,0.7
			c0.3,0,0.5,0,0.8-0.1v1.8C424.4,224.3,423.9,224.4,423.5,224.4z"/>
	</g>
</g>
<path class="st3" d="M76.5,174.6l50.1,0.1c1.9,0.1,3.7,0.1,5.5,0.1c7.2-0.2,14.5-1.8,20.5-5.6c6.8-4.3,11.8-11.5,13.4-19.4
	c1.6-7.9-0.2-16.1-4.7-22.8c4.3,8.1,3.4,18.7-2.1,26.1c-5.3,7-14.1,10.7-22.9,11.8c-1.9,0.2-3.8,0.3-5.8,0.3h-27.9"/>
<path class="st3" d="M127.5,103.3c5.3-7,14.1-10.7,22.9-11.8c2.3-0.3,5.5-0.5,9.8-0.3l-3.9-9.7c-0.5,0-1.2,0-1.6,0
	c-7.2,0.2-14.5,1.8-20.5,5.6c-6.8,4.3-11.8,11.5-13.4,19.4c-1.6,7.9,0.2,16.1,4.7,22.8C121.1,121.3,122,110.7,127.5,103.3z"/>
<path class="st2" d="M76.7,174.6c-0.1,0-0.1,0-0.2,0h0L76.7,174.6z"/>
<path class="st3" d="M162,97.3L162,97.3l-6,0l0,0c-29.1,1.1-33.8,17.1-30.3,29.9l0,0c3.2,8.3,12.1,15.4,20.4,19c-7.6,3-16,3-24,2.3
	c-1,3.4-2.5,6.7-4.5,9.7c10.2,0.6,21.2,1.2,30.7-3.1c24.1-12,13.4-36.7-7.5-44.9c8.3-3,16.8-3.3,25.7-1.8 M152.5,129.5
	c3.5,2.5,4.6,7.4,2,10.8c-6.8-8-29.7-10.1-22.4-24.2C138.4,121.3,146,124.6,152.5,129.5z"/>
<path class="st2" d="M76.4,174.6c-0.1,0-0.1,0-0.2,0h0L76.4,174.6z"/>
<path class="st2" d="M102.7,165.1c0.7-0.6,1.3-1.2,2-1.9c1-1.1,1.9-2.3,2.8-3.6c3-4.3,5.4-9.3,6.2-14.5c0.2-1.2,0.4-2.4,0.5-3.6
	c0-0.8,0.1-1.5,0.1-2.3c0-16.8-3.5-24.1-10.4-30.9c-6.9-6.8-16.3-10.6-26.7-10.8l-21.8-0.3l-1.7,0l0,1.7L53,153.8l-0.2,7.1
	l-0.2,11.8l0,1.8l1.7,0l6.9,0.1l14.9,0.1c0.2,0,0.3,0,0.5,0C93.5,174.8,102.7,165.1,102.7,165.1z M99.5,137.1
	C98.8,150,89.9,161,76.7,161l-9.1,0l0-7.1l0.5-42.6l8.9,0.1c6.7,0.1,12.2,1.9,16.4,6.2C96.5,120.9,100.2,125.1,99.5,137.1z"/>
<path class="st2" d="M166.2,108.3c2.3,4.7,19.6,54.9,21.9,61.1h0l1.9,5.3h16.3c8-22.9,18.5-55.3,27.6-77.5h-20.1
	c-3.4,15.5-11.1,41.3-15.6,56.6h-0.4c-4-13.8-12.5-43-15.7-56.6h-20.4l0,0"/>
<path class="st2" d="M76.7,237.8c-0.1,0-0.1,0-0.2,0h0L76.7,237.8z"/>
<path class="st2" d="M76.4,237.8c-0.1,0-0.1,0-0.2,0h0L76.4,237.8z"/>
</svg>
